# xmcd
#
# Track frame offsets: 
#        150
#        7296
#        25354
#        46990
#        63038
#        78162
#        94108
#        116819
#        147526
#        168002
#        194240
#
# Disc length: 2977 seconds
#
# Revision: 0
# Processed by: cddbd v1.5.2PL0 Copyright (c) Steve Scherf et al.
# Submitted via: ExactAudioCopy v0.99pb4
#
DISCID=960b9f0b
DTITLE=Portishead - Third
DYEAR=2008
DGENRE=Trip-Hop
TTITLE0=Silence
TTITLE1=Hunter
TTITLE2=Nylon Smile
TTITLE3=The Rip
TTITLE4=Plastic
TTITLE5=We Carry On
TTITLE6=Deep Water
TTITLE7=Machine Gun
TTITLE8=Small
TTITLE9=Magic Doors
TTITLE10=Threads
EXTD=
EXTT0=
EXTT1=
EXTT2=
EXTT3=
EXTT4=
EXTT5=
EXTT6=
EXTT7=
EXTT8=
EXTT9=
EXTT10=
PLAYORDER=
